<?xml version="1.0" encoding="UTF-8" standalone="no"?>
<!DOCTYPE svg PUBLIC "-//W3C//DTD SVG 1.1//EN"
 "http://www.w3.org/Graphics/SVG/1.1/DTD/svg11.dtd">
<!-- Generated by graphviz version 7.1.0 (20230121.1956)
 -->
<!-- Title: packages Pages: 1 -->
<svg width="720pt" height="720pt"
 viewBox="0.00 0.00 720.00 720.00" xmlns="http://www.w3.org/2000/svg" xmlns:xlink="http://www.w3.org/1999/xlink">
<g id="graph0" class="graph" transform="scale(0.687023 0.687023) rotate(0) translate(4 1044)">
<title>packages</title>
<polygon fill="white" stroke="none" points="-4,4 -4,-1044 1044,-1044 1044,4 -4,4"/>
<g id="clust1" class="cluster">
<title>cluster packages/nhost_flutter_auth</title>
<polygon fill="none" stroke="#bca320" points="8,-735.52 8,-873.09 177,-873.09 177,-735.52 8,-735.52"/>
<text text-anchor="middle" x="92.5" y="-857.89" font-family="Times,serif" font-size="14.00">packages/nhost_flutter_auth</text>
</g>
<g id="clust2" class="cluster">
<title>cluster packages</title>
<polygon fill="none" stroke="#6b4949" points="185,-14.67 185,-873.09 652,-873.09 652,-14.67 185,-14.67"/>
<text text-anchor="middle" x="418.5" y="-857.89" font-family="Times,serif" font-size="14.00">packages</text>
</g>
<g id="clust3" class="cluster">
<title>cluster packages/nhost_auth_dart</title>
<polygon fill="none" stroke="#4dfda5" points="660,-431.04 660,-568.61 834,-568.61 834,-431.04 660,-431.04"/>
<text text-anchor="middle" x="747" y="-553.41" font-family="Times,serif" font-size="14.00">packages/nhost_auth_dart</text>
</g>
<g id="clust4" class="cluster">
<title>cluster packages/nhost_dart</title>
<polygon fill="none" stroke="#363f4c" points="660,-583.28 660,-720.85 804,-720.85 804,-583.28 660,-583.28"/>
<text text-anchor="middle" x="732" y="-705.65" font-family="Times,serif" font-size="14.00">packages/nhost_dart</text>
</g>
<g id="clust5" class="cluster">
<title>cluster packages/nhost_flutter_graphql</title>
<polygon fill="none" stroke="#0336d7" points="238,-887.76 238,-1025.33 442,-1025.33 442,-887.76 238,-887.76"/>
<text text-anchor="middle" x="340" y="-1010.13" font-family="Times,serif" font-size="14.00">packages/nhost_flutter_graphql</text>
</g>
<g id="clust6" class="cluster">
<title>cluster packages/nhost_functions_dart</title>
<polygon fill="none" stroke="#e7a3ae" points="660,-278.8 660,-416.37 860,-416.37 860,-278.8 660,-278.8"/>
<text text-anchor="middle" x="760" y="-401.17" font-family="Times,serif" font-size="14.00">packages/nhost_functions_dart</text>
</g>
<g id="clust7" class="cluster">
<title>cluster packages/nhost_graphql_adapter</title>
<polygon fill="none" stroke="#b42be5" points="812,-583.28 812,-720.85 1006,-720.85 1006,-583.28 812,-583.28"/>
<text text-anchor="middle" x="909" y="-705.65" font-family="Times,serif" font-size="14.00">packages/nhost_graphql_adapter</text>
</g>
<g id="clust8" class="cluster">
<title>cluster packages/nhost_storage_dart</title>
<polygon fill="none" stroke="#3730c4" points="842,-431.04 842,-568.61 1032,-568.61 1032,-431.04 842,-431.04"/>
<text text-anchor="middle" x="937" y="-553.41" font-family="Times,serif" font-size="14.00">packages/nhost_storage_dart</text>
</g>
<!-- example -->
<g id="node1" class="node">
<title>example</title>
<polygon fill="none" stroke="#ae12e6" points="168.5,-801.67 105.5,-801.67 105.5,-765.67 168.5,-765.67 168.5,-801.67"/>
<text text-anchor="middle" x="137" y="-779.97" font-family="Times,serif" font-size="14.00">example</text>
</g>
<!-- nhost_flutter_auth -->
<g id="node6" class="node">
<title>nhost_flutter_auth</title>
<polygon fill="none" stroke="#b182d5" points="398,-648.67 282,-648.67 282,-612.67 398,-612.67 398,-648.67"/>
<text text-anchor="middle" x="340" y="-626.97" font-family="Times,serif" font-size="14.00">nhost_flutter_auth</text>
</g>
<!-- example&#45;&gt;nhost_flutter_auth -->
<g id="edge1" class="edge">
<title>example&#45;&gt;nhost_flutter_auth</title>
<path fill="none" stroke="#b182d5" d="M160.29,-765.35C196.52,-738.4 266.49,-686.36 307.62,-655.76"/>
<polygon fill="#b182d5" stroke="#b182d5" points="309.52,-658.71 315.46,-649.93 305.35,-653.09 309.52,-658.71"/>
</g>
<!-- nhost_auth_dart -->
<g id="node2" class="node">
<title>nhost_auth_dart</title>
<polygon fill="none" stroke="#7e6b8d" points="644,-344.67 540,-344.67 540,-308.67 644,-308.67 644,-344.67"/>
<text text-anchor="middle" x="592" y="-322.97" font-family="Times,serif" font-size="14.00">nhost_auth_dart</text>
</g>
<!-- nhost_sdk -->
<g id="node14" class="node">
<title>nhost_sdk</title>
<polygon fill="none" stroke="#735ea2" points="413.5,-80.67 342.5,-80.67 342.5,-44.67 413.5,-44.67 413.5,-80.67"/>
<text text-anchor="middle" x="378" y="-58.97" font-family="Times,serif" font-size="14.00">nhost_sdk</text>
</g>
<!-- nhost_auth_dart&#45;&gt;nhost_sdk -->
<g id="edge2" class="edge">
<title>nhost_auth_dart&#45;&gt;nhost_sdk</title>
<path fill="none" stroke="#735ea2" d="M605.29,-308.2C625.87,-278.85 660.36,-218.73 633,-176.67 586.85,-105.75 484.9,-79 424.82,-69.16"/>
<polygon fill="#735ea2" stroke="#735ea2" points="425.66,-65.75 415.25,-67.7 424.6,-72.67 425.66,-65.75"/>
</g>
<!-- nhost_auth_dart_example -->
<g id="node3" class="node">
<title>nhost_auth_dart_example</title>
<polygon fill="none" stroke="#e63dd9" points="825.5,-496.67 668.5,-496.67 668.5,-460.67 825.5,-460.67 825.5,-496.67"/>
<text text-anchor="middle" x="747" y="-474.97" font-family="Times,serif" font-size="14.00">nhost_auth_dart_example</text>
</g>
<!-- nhost_auth_dart_example&#45;&gt;nhost_auth_dart -->
<g id="edge3" class="edge">
<title>nhost_auth_dart_example&#45;&gt;nhost_auth_dart</title>
<path fill="none" stroke="#7e6b8d" d="M729.22,-460.47C701.92,-434.05 649.53,-383.35 617.98,-352.81"/>
<polygon fill="#7e6b8d" stroke="#7e6b8d" points="620.76,-350.63 611.14,-346.19 615.89,-355.66 620.76,-350.63"/>
</g>
<!-- nhost_dart -->
<g id="node4" class="node">
<title>nhost_dart</title>
<polygon fill="none" stroke="#3a7738" points="498,-496.67 424,-496.67 424,-460.67 498,-460.67 498,-496.67"/>
<text text-anchor="middle" x="461" y="-474.97" font-family="Times,serif" font-size="14.00">nhost_dart</text>
</g>
<!-- nhost_dart&#45;&gt;nhost_auth_dart -->
<g id="edge6" class="edge">
<title>nhost_dart&#45;&gt;nhost_auth_dart</title>
<path fill="none" stroke="#7e6b8d" d="M476.03,-460.47C498.9,-434.27 542.62,-384.21 569.36,-353.6"/>
<polygon fill="#7e6b8d" stroke="#7e6b8d" points="571.81,-356.12 575.75,-346.28 566.53,-351.51 571.81,-356.12"/>
</g>
<!-- nhost_functions_dart -->
<g id="node9" class="node">
<title>nhost_functions_dart</title>
<polygon fill="none" stroke="#9ef351" points="486.5,-212.67 355.5,-212.67 355.5,-176.67 486.5,-176.67 486.5,-212.67"/>
<text text-anchor="middle" x="421" y="-190.97" font-family="Times,serif" font-size="14.00">nhost_functions_dart</text>
</g>
<!-- nhost_dart&#45;&gt;nhost_functions_dart -->
<g id="edge7" class="edge">
<title>nhost_dart&#45;&gt;nhost_functions_dart</title>
<path fill="none" stroke="#9ef351" d="M458.56,-460.46C451.89,-413.46 433.33,-282.58 425.06,-224.3"/>
<polygon fill="#9ef351" stroke="#9ef351" points="428.54,-223.93 423.67,-214.52 421.61,-224.91 428.54,-223.93"/>
</g>
<!-- nhost_graphql_adapter -->
<g id="node12" class="node">
<title>nhost_graphql_adapter</title>
<polygon fill="none" stroke="#f065b0" points="333,-344.67 193,-344.67 193,-308.67 333,-308.67 333,-344.67"/>
<text text-anchor="middle" x="263" y="-322.97" font-family="Times,serif" font-size="14.00">nhost_graphql_adapter</text>
</g>
<!-- nhost_dart&#45;&gt;nhost_graphql_adapter -->
<g id="edge8" class="edge">
<title>nhost_dart&#45;&gt;nhost_graphql_adapter</title>
<path fill="none" stroke="#f065b0" d="M438.29,-460.47C403.12,-433.82 335.35,-382.49 295.16,-352.04"/>
<polygon fill="#f065b0" stroke="#f065b0" points="297.35,-349.3 287.26,-346.06 293.12,-354.88 297.35,-349.3"/>
</g>
<!-- nhost_dart&#45;&gt;nhost_sdk -->
<g id="edge4" class="edge">
<title>nhost_dart&#45;&gt;nhost_sdk</title>
<path fill="none" stroke="#735ea2" d="M450.38,-460.21C425.99,-418.98 366.54,-311.62 346,-212.67 337.22,-170.41 352.63,-121.49 364.96,-91.57"/>
<polygon fill="#735ea2" stroke="#735ea2" points="368.14,-93.05 368.88,-82.48 361.71,-90.28 368.14,-93.05"/>
</g>
<!-- nhost_storage_dart -->
<g id="node15" class="node">
<title>nhost_storage_dart</title>
<polygon fill="none" stroke="#6ba35f" points="623.5,-212.67 504.5,-212.67 504.5,-176.67 623.5,-176.67 623.5,-212.67"/>
<text text-anchor="middle" x="564" y="-190.97" font-family="Times,serif" font-size="14.00">nhost_storage_dart</text>
</g>
<!-- nhost_dart&#45;&gt;nhost_storage_dart -->
<g id="edge5" class="edge">
<title>nhost_dart&#45;&gt;nhost_storage_dart</title>
<path fill="none" stroke="#6ba35f" d="M467.29,-460.46C484.53,-413.26 532.66,-281.48 553.81,-223.57"/>
<polygon fill="#6ba35f" stroke="#6ba35f" points="557,-225.04 557.14,-214.44 550.43,-222.64 557,-225.04"/>
</g>
<!-- nhost_dart_example -->
<g id="node5" class="node">
<title>nhost_dart_example</title>
<polygon fill="none" stroke="#6e37b0" points="795.5,-648.67 668.5,-648.67 668.5,-612.67 795.5,-612.67 795.5,-648.67"/>
<text text-anchor="middle" x="732" y="-626.97" font-family="Times,serif" font-size="14.00">nhost_dart_example</text>
</g>
<!-- nhost_dart_example&#45;&gt;nhost_dart -->
<g id="edge9" class="edge">
<title>nhost_dart_example&#45;&gt;nhost_dart</title>
<path fill="none" stroke="#3a7738" d="M700.65,-612.32C651.69,-585.22 557.07,-532.85 502.51,-502.65"/>
<polygon fill="#3a7738" stroke="#3a7738" points="504.26,-499.62 493.81,-497.84 500.87,-505.74 504.26,-499.62"/>
</g>
<!-- nhost_flutter_auth&#45;&gt;nhost_dart -->
<g id="edge10" class="edge">
<title>nhost_flutter_auth&#45;&gt;nhost_dart</title>
<path fill="none" stroke="#3a7738" d="M353.88,-612.47C374.92,-586.38 415.05,-536.64 439.77,-505.99"/>
<polygon fill="#3a7738" stroke="#3a7738" points="442.4,-508.3 445.96,-498.32 436.96,-503.91 442.4,-508.3"/>
</g>
<!-- nhost_flutter_graphql -->
<g id="node7" class="node">
<title>nhost_flutter_graphql</title>
<polygon fill="none" stroke="#76830a" points="407,-801.67 273,-801.67 273,-765.67 407,-765.67 407,-801.67"/>
<text text-anchor="middle" x="340" y="-779.97" font-family="Times,serif" font-size="14.00">nhost_flutter_graphql</text>
</g>
<!-- nhost_flutter_graphql&#45;&gt;nhost_flutter_auth -->
<g id="edge11" class="edge">
<title>nhost_flutter_graphql&#45;&gt;nhost_flutter_auth</title>
<path fill="none" stroke="#b182d5" d="M340,-765.35C340,-739.64 340,-691.08 340,-660.1"/>
<polygon fill="#b182d5" stroke="#b182d5" points="343.5,-660.31 340,-650.31 336.5,-660.31 343.5,-660.31"/>
</g>
<!-- nhost_flutter_graphql_example -->
<g id="node8" class="node">
<title>nhost_flutter_graphql_example</title>
<polygon fill="none" stroke="#dc71fa" points="433.5,-953.67 246.5,-953.67 246.5,-917.67 433.5,-917.67 433.5,-953.67"/>
<text text-anchor="middle" x="340" y="-931.97" font-family="Times,serif" font-size="14.00">nhost_flutter_graphql_example</text>
</g>
<!-- nhost_flutter_graphql_example&#45;&gt;nhost_flutter_graphql -->
<g id="edge12" class="edge">
<title>nhost_flutter_graphql_example&#45;&gt;nhost_flutter_graphql</title>
<path fill="none" stroke="#76830a" d="M340,-917.47C340,-892.06 340,-844.2 340,-813.41"/>
<polygon fill="#76830a" stroke="#76830a" points="343.5,-813.66 340,-803.66 336.5,-813.66 343.5,-813.66"/>
</g>
<!-- nhost_functions_dart&#45;&gt;nhost_sdk -->
<g id="edge13" class="edge">
<title>nhost_functions_dart&#45;&gt;nhost_sdk</title>
<path fill="none" stroke="#735ea2" d="M415.29,-176.41C408.16,-154.85 395.86,-117.67 387.35,-91.93"/>
<polygon fill="#735ea2" stroke="#735ea2" points="390.67,-90.84 384.21,-82.45 384.03,-93.04 390.67,-90.84"/>
</g>
<!-- nhost_functions_dart_example -->
<g id="node10" class="node">
<title>nhost_functions_dart_example</title>
<polygon fill="none" stroke="#fc7ad7" points="852,-344.67 668,-344.67 668,-308.67 852,-308.67 852,-344.67"/>
<text text-anchor="middle" x="760" y="-322.97" font-family="Times,serif" font-size="14.00">nhost_functions_dart_example</text>
</g>
<!-- nhost_functions_dart_example&#45;&gt;nhost_functions_dart -->
<g id="edge14" class="edge">
<title>nhost_functions_dart_example&#45;&gt;nhost_functions_dart</title>
<path fill="none" stroke="#9ef351" d="M714.63,-308.28C653.19,-284.72 543.58,-242.68 477.06,-217.17"/>
<polygon fill="#9ef351" stroke="#9ef351" points="478.37,-213.93 467.78,-213.61 475.87,-220.46 478.37,-213.93"/>
</g>
<!-- nhost_gql_links -->
<g id="node11" class="node">
<title>nhost_gql_links</title>
<polygon fill="none" stroke="#4b0d34" points="316.5,-212.67 213.5,-212.67 213.5,-176.67 316.5,-176.67 316.5,-212.67"/>
<text text-anchor="middle" x="265" y="-190.97" font-family="Times,serif" font-size="14.00">nhost_gql_links</text>
</g>
<!-- nhost_gql_links&#45;&gt;nhost_sdk -->
<g id="edge15" class="edge">
<title>nhost_gql_links&#45;&gt;nhost_sdk</title>
<path fill="none" stroke="#735ea2" d="M280.01,-176.41C299.34,-154.17 333.12,-115.31 355.52,-89.53"/>
<polygon fill="#735ea2" stroke="#735ea2" points="358.02,-91.99 361.94,-82.15 352.74,-87.4 358.02,-91.99"/>
</g>
<!-- nhost_graphql_adapter&#45;&gt;nhost_gql_links -->
<g id="edge16" class="edge">
<title>nhost_graphql_adapter&#45;&gt;nhost_gql_links</title>
<path fill="none" stroke="#4b0d34" d="M263.27,-308.41C263.6,-286.95 264.16,-250 264.56,-224.28"/>
<polygon fill="#4b0d34" stroke="#4b0d34" points="268.06,-224.57 264.71,-214.52 261.06,-224.47 268.06,-224.57"/>
</g>
<!-- nhost_graphql_adapter&#45;&gt;nhost_sdk -->
<g id="edge17" class="edge">
<title>nhost_graphql_adapter&#45;&gt;nhost_sdk</title>
<path fill="none" stroke="#735ea2" d="M246.64,-308.55C221.64,-280.2 179.31,-222.15 204,-176.67 230.88,-127.17 289.85,-95.98 331.68,-79.2"/>
<polygon fill="#735ea2" stroke="#735ea2" points="332.7,-82.56 340.76,-75.69 330.17,-76.03 332.7,-82.56"/>
</g>
<!-- nhost_graphql_example -->
<g id="node13" class="node">
<title>nhost_graphql_example</title>
<polygon fill="none" stroke="#68b25c" points="967.5,-648.67 820.5,-648.67 820.5,-612.67 967.5,-612.67 967.5,-648.67"/>
<text text-anchor="middle" x="894" y="-626.97" font-family="Times,serif" font-size="14.00">nhost_graphql_example</text>
</g>
<!-- nhost_graphql_example&#45;&gt;nhost_dart -->
<g id="edge18" class="edge">
<title>nhost_graphql_example&#45;&gt;nhost_dart</title>
<path fill="none" stroke="#3a7738" d="M843.91,-612.32C759.94,-583.23 591.9,-525.02 509.21,-496.38"/>
<polygon fill="#3a7738" stroke="#3a7738" points="510.39,-493.08 499.8,-493.11 508.1,-499.69 510.39,-493.08"/>
</g>
<!-- nhost_storage_dart&#45;&gt;nhost_sdk -->
<g id="edge19" class="edge">
<title>nhost_storage_dart&#45;&gt;nhost_sdk</title>
<path fill="none" stroke="#735ea2" d="M539.3,-176.41C506.64,-153.59 448.95,-113.26 412.14,-87.53"/>
<polygon fill="#735ea2" stroke="#735ea2" points="414.24,-84.74 404.04,-81.88 410.23,-90.47 414.24,-84.74"/>
</g>
<!-- nhost_storage_dart_example -->
<g id="node16" class="node">
<title>nhost_storage_dart_example</title>
<polygon fill="none" stroke="#215ae7" points="1023.5,-496.67 850.5,-496.67 850.5,-460.67 1023.5,-460.67 1023.5,-496.67"/>
<text text-anchor="middle" x="937" y="-474.97" font-family="Times,serif" font-size="14.00">nhost_storage_dart_example</text>
</g>
<!-- nhost_storage_dart_example&#45;&gt;nhost_auth_dart -->
<g id="edge21" class="edge">
<title>nhost_storage_dart_example&#45;&gt;nhost_auth_dart</title>
<path fill="none" stroke="#7e6b8d" d="M872.48,-460.19C813.99,-442.98 726.41,-413.76 656,-375.67 643.81,-369.08 631.4,-360.34 620.8,-352.12"/>
<polygon fill="#7e6b8d" stroke="#7e6b8d" points="623.17,-349.54 613.17,-346.04 618.81,-355.01 623.17,-349.54"/>
</g>
<!-- nhost_storage_dart_example&#45;&gt;nhost_storage_dart -->
<g id="edge20" class="edge">
<title>nhost_storage_dart_example&#45;&gt;nhost_storage_dart</title>
<path fill="none" stroke="#6ba35f" d="M934.6,-460.18C928.88,-425.02 911.19,-345.36 864,-300.67 800.94,-240.96 702.02,-214.98 635.17,-203.83"/>
<polygon fill="#6ba35f" stroke="#6ba35f" points="635.82,-200.39 625.4,-202.27 634.72,-207.3 635.82,-200.39"/>
</g>
</g>
</svg>
