<?xml version="1.0" encoding="UTF-8" standalone="no"?>
<!DOCTYPE svg PUBLIC "-//W3C//DTD SVG 1.1//EN"
 "http://www.w3.org/Graphics/SVG/1.1/DTD/svg11.dtd">
<!-- Generated by graphviz version 7.1.0 (20230121.1956)
 -->
<!-- Title: packages Pages: 1 -->
<svg width="720pt" height="720pt"
 viewBox="0.00 0.00 720.00 720.00" xmlns="http://www.w3.org/2000/svg" xmlns:xlink="http://www.w3.org/1999/xlink">
<g id="graph0" class="graph" transform="scale(0.667285 0.667285) rotate(0) translate(4 1075)">
<title>packages</title>
<polygon fill="white" stroke="none" points="-4,4 -4,-1075 1075,-1075 1075,4 -4,4"/>
<g id="clust1" class="cluster">
<title>cluster packages</title>
<polygon fill="none" stroke="#6b4949" points="216,-15.11 216,-899.11 683,-899.11 683,-15.11 216,-15.11"/>
<text text-anchor="middle" x="449.5" y="-883.91" font-family="Times,serif" font-size="14.00">packages</text>
</g>
<g id="clust2" class="cluster">
<title>cluster packages/nhost_auth_dart</title>
<polygon fill="none" stroke="#4dfda5" points="691,-443.89 691,-585.56 865,-585.56 865,-443.89 691,-443.89"/>
<text text-anchor="middle" x="778" y="-570.36" font-family="Times,serif" font-size="14.00">packages/nhost_auth_dart</text>
</g>
<g id="clust3" class="cluster">
<title>cluster packages/nhost_dart</title>
<polygon fill="none" stroke="#363f4c" points="691,-600.67 691,-742.33 835,-742.33 835,-600.67 691,-600.67"/>
<text text-anchor="middle" x="763" y="-727.13" font-family="Times,serif" font-size="14.00">packages/nhost_dart</text>
</g>
<g id="clust4" class="cluster">
<title>cluster packages/nhost_flutter_auth</title>
<polygon fill="none" stroke="#bca320" points="691,-757.44 691,-899.11 877,-899.11 877,-757.44 691,-757.44"/>
<text text-anchor="middle" x="784" y="-883.91" font-family="Times,serif" font-size="14.00">packages/nhost_flutter_auth</text>
</g>
<g id="clust5" class="cluster">
<title>cluster packages/nhost_flutter_graphql</title>
<polygon fill="none" stroke="#0336d7" points="492,-914.22 492,-1055.89 696,-1055.89 696,-914.22 492,-914.22"/>
<text text-anchor="middle" x="594" y="-1040.69" font-family="Times,serif" font-size="14.00">packages/nhost_flutter_graphql</text>
</g>
<g id="clust6" class="cluster">
<title>cluster packages/nhost_functions_dart</title>
<polygon fill="none" stroke="#e7a3ae" points="8,-287.11 8,-428.78 208,-428.78 208,-287.11 8,-287.11"/>
<text text-anchor="middle" x="108" y="-413.58" font-family="Times,serif" font-size="14.00">packages/nhost_functions_dart</text>
</g>
<g id="clust7" class="cluster">
<title>cluster packages/nhost_graphql_adapter</title>
<polygon fill="none" stroke="#b42be5" points="843,-600.67 843,-742.33 1037,-742.33 1037,-600.67 843,-600.67"/>
<text text-anchor="middle" x="940" y="-727.13" font-family="Times,serif" font-size="14.00">packages/nhost_graphql_adapter</text>
</g>
<g id="clust8" class="cluster">
<title>cluster packages/nhost_storage_dart</title>
<polygon fill="none" stroke="#3730c4" points="873,-443.89 873,-585.56 1063,-585.56 1063,-443.89 873,-443.89"/>
<text text-anchor="middle" x="968" y="-570.36" font-family="Times,serif" font-size="14.00">packages/nhost_storage_dart</text>
</g>
<!-- nhost_auth_dart -->
<g id="node1" class="node">
<title>nhost_auth_dart</title>
<polygon fill="none" stroke="#7e6b8d" points="675,-354.11 571,-354.11 571,-318.11 675,-318.11 675,-354.11"/>
<text text-anchor="middle" x="623" y="-332.41" font-family="Times,serif" font-size="14.00">nhost_auth_dart</text>
</g>
<!-- nhost_sdk -->
<g id="node14" class="node">
<title>nhost_sdk</title>
<polygon fill="none" stroke="#735ea2" points="541.5,-82.11 470.5,-82.11 470.5,-46.11 541.5,-46.11 541.5,-82.11"/>
<text text-anchor="middle" x="506" y="-60.41" font-family="Times,serif" font-size="14.00">nhost_sdk</text>
</g>
<!-- nhost_auth_dart&#45;&gt;nhost_sdk -->
<g id="edge1" class="edge">
<title>nhost_auth_dart&#45;&gt;nhost_sdk</title>
<path fill="none" stroke="#735ea2" d="M609.06,-317.93C591.92,-296 563.01,-256.32 546,-218.11 527.48,-176.52 516.17,-124.62 510.5,-93.21"/>
<polygon fill="#735ea2" stroke="#735ea2" points="514.01,-92.99 508.86,-83.73 507.12,-94.18 514.01,-92.99"/>
</g>
<!-- nhost_auth_dart_example -->
<g id="node2" class="node">
<title>nhost_auth_dart_example</title>
<polygon fill="none" stroke="#e63dd9" points="856.5,-511.11 699.5,-511.11 699.5,-475.11 856.5,-475.11 856.5,-511.11"/>
<text text-anchor="middle" x="778" y="-489.41" font-family="Times,serif" font-size="14.00">nhost_auth_dart_example</text>
</g>
<!-- nhost_auth_dart_example&#45;&gt;nhost_auth_dart -->
<g id="edge2" class="edge">
<title>nhost_auth_dart_example&#45;&gt;nhost_auth_dart</title>
<path fill="none" stroke="#7e6b8d" d="M760.52,-474.63C733.05,-447.16 679.65,-393.76 648.08,-362.2"/>
<polygon fill="#7e6b8d" stroke="#7e6b8d" points="650.79,-359.96 641.25,-355.36 645.85,-364.91 650.79,-359.96"/>
</g>
<!-- nhost_dart -->
<g id="node3" class="node">
<title>nhost_dart</title>
<polygon fill="none" stroke="#3a7738" points="603,-511.11 529,-511.11 529,-475.11 603,-475.11 603,-511.11"/>
<text text-anchor="middle" x="566" y="-489.41" font-family="Times,serif" font-size="14.00">nhost_dart</text>
</g>
<!-- nhost_dart&#45;&gt;nhost_auth_dart -->
<g id="edge5" class="edge">
<title>nhost_dart&#45;&gt;nhost_auth_dart</title>
<path fill="none" stroke="#7e6b8d" d="M572.43,-474.63C582.23,-447.98 601.01,-396.92 612.72,-365.07"/>
<polygon fill="#7e6b8d" stroke="#7e6b8d" points="615.99,-366.3 616.16,-355.71 609.42,-363.89 615.99,-366.3"/>
</g>
<!-- nhost_functions_dart -->
<g id="node9" class="node">
<title>nhost_functions_dart</title>
<polygon fill="none" stroke="#9ef351" points="355.5,-218.11 224.5,-218.11 224.5,-182.11 355.5,-182.11 355.5,-218.11"/>
<text text-anchor="middle" x="290" y="-196.41" font-family="Times,serif" font-size="14.00">nhost_functions_dart</text>
</g>
<!-- nhost_dart&#45;&gt;nhost_functions_dart -->
<g id="edge6" class="edge">
<title>nhost_dart&#45;&gt;nhost_functions_dart</title>
<path fill="none" stroke="#9ef351" d="M528.78,-483.56C480.3,-470.52 396.09,-441.07 348,-385.11 309.31,-340.09 296.39,-269.21 292.1,-229.86"/>
<polygon fill="#9ef351" stroke="#9ef351" points="295.6,-229.62 291.16,-220 288.63,-230.29 295.6,-229.62"/>
</g>
<!-- nhost_graphql_adapter -->
<g id="node12" class="node">
<title>nhost_graphql_adapter</title>
<polygon fill="none" stroke="#f065b0" points="497,-354.11 357,-354.11 357,-318.11 497,-318.11 497,-354.11"/>
<text text-anchor="middle" x="427" y="-332.41" font-family="Times,serif" font-size="14.00">nhost_graphql_adapter</text>
</g>
<!-- nhost_dart&#45;&gt;nhost_graphql_adapter -->
<g id="edge7" class="edge">
<title>nhost_dart&#45;&gt;nhost_graphql_adapter</title>
<path fill="none" stroke="#f065b0" d="M550.33,-474.63C525.79,-447.28 478.21,-394.21 449.86,-362.6"/>
<polygon fill="#f065b0" stroke="#f065b0" points="452.7,-360.52 443.42,-355.42 447.49,-365.2 452.7,-360.52"/>
</g>
<!-- nhost_dart&#45;&gt;nhost_sdk -->
<g id="edge3" class="edge">
<title>nhost_dart&#45;&gt;nhost_sdk</title>
<path fill="none" stroke="#735ea2" d="M563.57,-474.84C554.37,-409.33 521.54,-175.69 510.03,-93.76"/>
<polygon fill="#735ea2" stroke="#735ea2" points="513.52,-93.51 508.67,-84.09 506.59,-94.48 513.52,-93.51"/>
</g>
<!-- nhost_storage_dart -->
<g id="node15" class="node">
<title>nhost_storage_dart</title>
<polygon fill="none" stroke="#6ba35f" points="674.5,-218.11 555.5,-218.11 555.5,-182.11 674.5,-182.11 674.5,-218.11"/>
<text text-anchor="middle" x="615" y="-196.41" font-family="Times,serif" font-size="14.00">nhost_storage_dart</text>
</g>
<!-- nhost_dart&#45;&gt;nhost_storage_dart -->
<g id="edge4" class="edge">
<title>nhost_dart&#45;&gt;nhost_storage_dart</title>
<path fill="none" stroke="#6ba35f" d="M562.82,-474.76C557.44,-442.05 548.39,-369.25 562,-310.11 568.86,-280.33 584.99,-249.26 597.67,-227.94"/>
<polygon fill="#6ba35f" stroke="#6ba35f" points="600.54,-229.96 602.77,-219.61 594.57,-226.31 600.54,-229.96"/>
</g>
<!-- nhost_dart_example -->
<g id="node4" class="node">
<title>nhost_dart_example</title>
<polygon fill="none" stroke="#6e37b0" points="826.5,-668.11 699.5,-668.11 699.5,-632.11 826.5,-632.11 826.5,-668.11"/>
<text text-anchor="middle" x="763" y="-646.41" font-family="Times,serif" font-size="14.00">nhost_dart_example</text>
</g>
<!-- nhost_dart_example&#45;&gt;nhost_dart -->
<g id="edge8" class="edge">
<title>nhost_dart_example&#45;&gt;nhost_dart</title>
<path fill="none" stroke="#3a7738" d="M740.78,-631.63C705.66,-604 637.21,-550.14 597.18,-518.64"/>
<polygon fill="#3a7738" stroke="#3a7738" points="599.35,-515.9 589.32,-512.46 595.02,-521.4 599.35,-515.9"/>
</g>
<!-- nhost_flutter_auth -->
<g id="node5" class="node">
<title>nhost_flutter_auth</title>
<polygon fill="none" stroke="#b182d5" points="652,-668.11 536,-668.11 536,-632.11 652,-632.11 652,-668.11"/>
<text text-anchor="middle" x="594" y="-646.41" font-family="Times,serif" font-size="14.00">nhost_flutter_auth</text>
</g>
<!-- nhost_flutter_auth&#45;&gt;nhost_dart -->
<g id="edge9" class="edge">
<title>nhost_flutter_auth&#45;&gt;nhost_dart</title>
<path fill="none" stroke="#3a7738" d="M590.84,-631.63C586.05,-605.09 576.88,-554.37 571.13,-522.49"/>
<polygon fill="#3a7738" stroke="#3a7738" points="574.59,-522 569.37,-512.78 567.71,-523.24 574.59,-522"/>
</g>
<!-- nhost_flutter_auth_example -->
<g id="node6" class="node">
<title>nhost_flutter_auth_example</title>
<polygon fill="none" stroke="#c0aa2b" points="868.5,-824.11 699.5,-824.11 699.5,-788.11 868.5,-788.11 868.5,-824.11"/>
<text text-anchor="middle" x="784" y="-802.41" font-family="Times,serif" font-size="14.00">nhost_flutter_auth_example</text>
</g>
<!-- nhost_flutter_auth_example&#45;&gt;nhost_flutter_auth -->
<g id="edge10" class="edge">
<title>nhost_flutter_auth_example&#45;&gt;nhost_flutter_auth</title>
<path fill="none" stroke="#b182d5" d="M762.57,-787.74C728.7,-760.29 662.68,-706.77 624.07,-675.49"/>
<polygon fill="#b182d5" stroke="#b182d5" points="626.5,-672.94 616.52,-669.37 622.09,-678.38 626.5,-672.94"/>
</g>
<!-- nhost_flutter_graphql -->
<g id="node7" class="node">
<title>nhost_flutter_graphql</title>
<polygon fill="none" stroke="#76830a" points="661,-824.11 527,-824.11 527,-788.11 661,-788.11 661,-824.11"/>
<text text-anchor="middle" x="594" y="-802.41" font-family="Times,serif" font-size="14.00">nhost_flutter_graphql</text>
</g>
<!-- nhost_flutter_graphql&#45;&gt;nhost_flutter_auth -->
<g id="edge11" class="edge">
<title>nhost_flutter_graphql&#45;&gt;nhost_flutter_auth</title>
<path fill="none" stroke="#b182d5" d="M594,-787.74C594,-761.38 594,-710.98 594,-679.31"/>
<polygon fill="#b182d5" stroke="#b182d5" points="597.5,-679.69 594,-669.69 590.5,-679.69 597.5,-679.69"/>
</g>
<!-- nhost_flutter_graphql_example -->
<g id="node8" class="node">
<title>nhost_flutter_graphql_example</title>
<polygon fill="none" stroke="#dc71fa" points="687.5,-981.11 500.5,-981.11 500.5,-945.11 687.5,-945.11 687.5,-981.11"/>
<text text-anchor="middle" x="594" y="-959.41" font-family="Times,serif" font-size="14.00">nhost_flutter_graphql_example</text>
</g>
<!-- nhost_flutter_graphql_example&#45;&gt;nhost_flutter_graphql -->
<g id="edge12" class="edge">
<title>nhost_flutter_graphql_example&#45;&gt;nhost_flutter_graphql</title>
<path fill="none" stroke="#76830a" d="M594,-944.63C594,-918.09 594,-867.37 594,-835.49"/>
<polygon fill="#76830a" stroke="#76830a" points="597.5,-835.8 594,-825.8 590.5,-835.8 597.5,-835.8"/>
</g>
<!-- nhost_functions_dart&#45;&gt;nhost_sdk -->
<g id="edge13" class="edge">
<title>nhost_functions_dart&#45;&gt;nhost_sdk</title>
<path fill="none" stroke="#735ea2" d="M317.8,-181.87C356.17,-158.06 425.49,-115.06 468.44,-88.41"/>
<polygon fill="#735ea2" stroke="#735ea2" points="470.03,-91.54 476.68,-83.3 466.34,-85.6 470.03,-91.54"/>
</g>
<!-- nhost_functions_dart_example -->
<g id="node10" class="node">
<title>nhost_functions_dart_example</title>
<polygon fill="none" stroke="#fc7ad7" points="200,-354.11 16,-354.11 16,-318.11 200,-318.11 200,-354.11"/>
<text text-anchor="middle" x="108" y="-332.41" font-family="Times,serif" font-size="14.00">nhost_functions_dart_example</text>
</g>
<!-- nhost_functions_dart_example&#45;&gt;nhost_functions_dart -->
<g id="edge14" class="edge">
<title>nhost_functions_dart_example&#45;&gt;nhost_functions_dart</title>
<path fill="none" stroke="#9ef351" d="M131.42,-317.87C163.41,-294.31 220.93,-251.96 257.2,-225.26"/>
<polygon fill="#9ef351" stroke="#9ef351" points="259.18,-228.15 265.16,-219.4 255.03,-222.51 259.18,-228.15"/>
</g>
<!-- nhost_gql_links -->
<g id="node11" class="node">
<title>nhost_gql_links</title>
<polygon fill="none" stroke="#4b0d34" points="476.5,-218.11 373.5,-218.11 373.5,-182.11 476.5,-182.11 476.5,-218.11"/>
<text text-anchor="middle" x="425" y="-196.41" font-family="Times,serif" font-size="14.00">nhost_gql_links</text>
</g>
<!-- nhost_gql_links&#45;&gt;nhost_sdk -->
<g id="edge15" class="edge">
<title>nhost_gql_links&#45;&gt;nhost_sdk</title>
<path fill="none" stroke="#735ea2" d="M435.42,-181.87C449.21,-159.05 473.67,-118.6 489.86,-91.82"/>
<polygon fill="#735ea2" stroke="#735ea2" points="492.66,-93.95 494.83,-83.58 486.67,-90.33 492.66,-93.95"/>
</g>
<!-- nhost_graphql_adapter&#45;&gt;nhost_gql_links -->
<g id="edge16" class="edge">
<title>nhost_graphql_adapter&#45;&gt;nhost_gql_links</title>
<path fill="none" stroke="#4b0d34" d="M426.74,-317.87C426.41,-295.55 425.82,-256.38 425.43,-229.61"/>
<polygon fill="#4b0d34" stroke="#4b0d34" points="428.93,-229.75 425.28,-219.8 421.93,-229.85 428.93,-229.75"/>
</g>
<!-- nhost_graphql_adapter&#45;&gt;nhost_sdk -->
<g id="edge17" class="edge">
<title>nhost_graphql_adapter&#45;&gt;nhost_sdk</title>
<path fill="none" stroke="#735ea2" d="M437.93,-317.63C451.3,-295.39 473.54,-255.38 485,-218.11 497.94,-176.03 502.92,-124.99 504.83,-93.79"/>
<polygon fill="#735ea2" stroke="#735ea2" points="508.31,-94.17 505.35,-83.99 501.32,-93.79 508.31,-94.17"/>
</g>
<!-- nhost_graphql_example -->
<g id="node13" class="node">
<title>nhost_graphql_example</title>
<polygon fill="none" stroke="#68b25c" points="998.5,-668.11 851.5,-668.11 851.5,-632.11 998.5,-632.11 998.5,-668.11"/>
<text text-anchor="middle" x="925" y="-646.41" font-family="Times,serif" font-size="14.00">nhost_graphql_example</text>
</g>
<!-- nhost_graphql_example&#45;&gt;nhost_dart -->
<g id="edge18" class="edge">
<title>nhost_graphql_example&#45;&gt;nhost_dart</title>
<path fill="none" stroke="#3a7738" d="M884.52,-631.63C817.8,-602.83 685.07,-545.52 613.83,-514.76"/>
<polygon fill="#3a7738" stroke="#3a7738" points="615.32,-511.59 604.75,-510.84 612.54,-518.02 615.32,-511.59"/>
</g>
<!-- nhost_storage_dart&#45;&gt;nhost_sdk -->
<g id="edge19" class="edge">
<title>nhost_storage_dart&#45;&gt;nhost_sdk</title>
<path fill="none" stroke="#735ea2" d="M600.97,-181.87C582.25,-158.85 548.93,-117.89 527.15,-91.11"/>
<polygon fill="#735ea2" stroke="#735ea2" points="529.95,-89.01 520.93,-83.46 524.52,-93.43 529.95,-89.01"/>
</g>
<!-- nhost_storage_dart_example -->
<g id="node16" class="node">
<title>nhost_storage_dart_example</title>
<polygon fill="none" stroke="#215ae7" points="1054.5,-511.11 881.5,-511.11 881.5,-475.11 1054.5,-475.11 1054.5,-511.11"/>
<text text-anchor="middle" x="968" y="-489.41" font-family="Times,serif" font-size="14.00">nhost_storage_dart_example</text>
</g>
<!-- nhost_storage_dart_example&#45;&gt;nhost_auth_dart -->
<g id="edge21" class="edge">
<title>nhost_storage_dart_example&#45;&gt;nhost_auth_dart</title>
<path fill="none" stroke="#7e6b8d" d="M929.09,-474.63C865.9,-446.24 741.08,-390.16 671.95,-359.1"/>
<polygon fill="#7e6b8d" stroke="#7e6b8d" points="673.7,-356.05 663.14,-355.15 670.83,-362.44 673.7,-356.05"/>
</g>
<!-- nhost_storage_dart_example&#45;&gt;nhost_storage_dart -->
<g id="edge20" class="edge">
<title>nhost_storage_dart_example&#45;&gt;nhost_storage_dart</title>
<path fill="none" stroke="#6ba35f" d="M946.98,-474.78C886.89,-425.25 714.28,-282.95 644.65,-225.55"/>
<polygon fill="#6ba35f" stroke="#6ba35f" points="647.02,-222.98 637.08,-219.31 642.57,-228.38 647.02,-222.98"/>
</g>
</g>
</svg>
